<?xml version="1.0" encoding="UTF-8" standalone="no"?>
<svg
   viewBox="0 0 35.799999 25.312"
   version="1.1"
   id="svg10"
   sodipodi:docname="video game.svg"
   inkscape:version="1.4.3 (0d15f75, 2025-12-25)"
   inkscape:export-filename="video game.png"
   inkscape:export-xdpi="637.16815"
   inkscape:export-ydpi="637.16815"
   width="35.799999"
   height="25.312"
   xmlns:inkscape="http://www.inkscape.org/namespaces/inkscape"
   xmlns:sodipodi="http://sodipodi.sourceforge.net/DTD/sodipodi-0.dtd"
   xmlns="http://www.w3.org/2000/svg"
   xmlns:svg="http://www.w3.org/2000/svg">
  <defs
     id="defs10" />
  <sodipodi:namedview
     id="namedview10"
     pagecolor="#505050"
     bordercolor="#ffffff"
     borderopacity="1"
     inkscape:showpageshadow="0"
     inkscape:pageopacity="0"
     inkscape:pagecheckerboard="1"
     inkscape:deskcolor="#505050"
     inkscape:zoom="22.388889"
     inkscape:cx="17.888337"
     inkscape:cy="10.987593"
     inkscape:window-width="1920"
     inkscape:window-height="1002"
     inkscape:window-x="-8"
     inkscape:window-y="-8"
     inkscape:window-maximized="1"
     inkscape:current-layer="svg10" />
  <path
     fill="#31373D"
     d="m 2.055,7.8050004 -0.004,-0.002 C 2.051,7.8030004 0,20.22 0,22.01 c 0,1.824 1.343,3.302 3,3.302 0.68,0 1.3,-0.258 1.803,-0.678 l 10.166,-8.938 z m 31.69,0 0.004,-0.002 c 0,0 2.051,12.4169996 2.051,14.2069996 0,1.824 -1.343,3.302 -3,3.302 -0.68,0 -1.3,-0.258 -1.803,-0.678 L 20.831,15.696 Z"
     id="path1"
     style="fill:#282828;fill-opacity:1" />
  <g
     fill="#14171A"
     id="g2"
     style="fill:#141414;fill-opacity:1"
     transform="translate(-0.075,-7.0509996)">
    <circle
       cx="25.975"
       cy="15.551"
       r="8.5"
       id="circle1"
       style="fill:#141414;fill-opacity:1" />
    <circle
       cx="9.9750004"
       cy="15.551"
       r="8.5"
       id="circle2"
       style="fill:#141414;fill-opacity:1" />
    <path
       d="m 9.975,7.051 h 16 v 16.87 h -16 z"
       id="path2"
       style="fill:#141414;fill-opacity:1" />
  </g>
  <circle
     fill="#14171a"
     cx="13"
     cy="16.25"
     r="5"
     id="circle3" />
  <circle
     fill="#14171a"
     cx="22.799999"
     cy="16.25"
     r="5"
     id="circle4" />
  <circle
     fill="#67757F"
     cx="22.799999"
     cy="16.25"
     r="3"
     id="circle5"
     style="fill:#67757f;fill-opacity:0.5" />
  <circle
     fill="#67757F"
     cx="13"
     cy="16.25"
     r="3"
     id="circle6"
     style="fill:#67757f;fill-opacity:0.5" />
  <circle
     fill="#FFCC4D"
     cx="25.66"
     cy="4.0820007"
     r="1.603"
     id="circle7"
     style="fill:#00a7eb;fill-opacity:1" />
  <circle
     fill="#77B255"
     cx="25.66"
     cy="10.556001"
     r="1.603"
     id="circle8"
     style="fill:#ffe100;fill-opacity:1" />
  <circle
     fill="#50A5E6"
     cx="22.422998"
     cy="7.3190002"
     r="1.603"
     id="circle9"
     style="fill:#6eb92b;fill-opacity:1" />
  <circle
     fill="#DD2E44"
     cx="28.896999"
     cy="7.3190002"
     r="1.603"
     id="circle10"
     style="fill:#e60012;fill-opacity:1" />
  <path
     d="m 11.073,5.4630004 v -2.168 c 0,-0.279 -0.226,-0.505 -0.505,-0.505 H 9.01 c -0.279,0 -0.505,0.226 -0.505,0.505 v 2.168 l 1.284,1.285 z m -2.569,3.63 V 11.261 c 0,0.279 0.226,0.505 0.505,0.505 h 1.558 c 0.279,0 0.505,-0.226 0.505,-0.505 V 9.0930004 l -1.284,-1.285 z m 5.269,-3.1 h -2.168 l -1.285,1.285 1.285,1.285 h 2.168 c 0.279,0 0.505,-0.227 0.505,-0.505 v -1.559 c 0,-0.279 -0.226,-0.506 -0.505,-0.506 z m -5.799,0 H 5.805 c -0.279,0 -0.505,0.227 -0.505,0.505 v 1.558 c 0,0.279 0.226,0.505 0.505,0.505 h 2.168 l 1.285,-1.285 z"
     fill="#8899A6"
     id="path10"
     style="fill:#8899a6;fill-opacity:0.496198" />
</svg>
